<svg xmlns="http://www.w3.org/2000/svg" version="1.1" xmlns:xlink="http://www.w3.org/1999/xlink" xmlns:svgjs="http://svgjs.com/svgjs" width="2000" height="1000" preserveAspectRatio="none" viewBox="0 0 2000 1000"><g mask="url(&quot;#SvgjsMask1040&quot;)" fill="none"><rect width="2000" height="1000" x="0" y="0" fill="#0e2a47"></rect><path d="M328 931L327 1283" stroke-width="8" stroke="url(#SvgjsLinearGradient1041)" stroke-linecap="round" class="Up"></path><path d="M1274 737L1273 1380" stroke-width="10" stroke="url(#SvgjsLinearGradient1042)" stroke-linecap="round" class="Up"></path><path d="M820 767L819 350" stroke-width="10" stroke="url(#SvgjsLinearGradient1043)" stroke-linecap="round" class="Down"></path><path d="M742 908L741 348" stroke-width="8" stroke="url(#SvgjsLinearGradient1042)" stroke-linecap="round" class="Up"></path><path d="M908 618L907 185" stroke-width="8" stroke="url(#SvgjsLinearGradient1041)" stroke-linecap="round" class="Up"></path><path d="M589 967L588 422" stroke-width="8" stroke="url(#SvgjsLinearGradient1041)" stroke-linecap="round" class="Up"></path><path d="M735 650L734 918" stroke-width="6" stroke="url(#SvgjsLinearGradient1042)" stroke-linecap="round" class="Up"></path><path d="M109 685L108 374" stroke-width="6" stroke="url(#SvgjsLinearGradient1042)" stroke-linecap="round" class="Up"></path><path d="M1234 162L1233 895" stroke-width="6" stroke="url(#SvgjsLinearGradient1043)" stroke-linecap="round" class="Down"></path><path d="M437 745L436 228" stroke-width="8" stroke="url(#SvgjsLinearGradient1042)" stroke-linecap="round" class="Up"></path><path d="M706 287L705 -201" stroke-width="6" stroke="url(#SvgjsLinearGradient1043)" stroke-linecap="round" class="Down"></path><path d="M1786 180L1785 -333" stroke-width="6" stroke="url(#SvgjsLinearGradient1043)" stroke-linecap="round" class="Down"></path><path d="M1610 477L1609 -128" stroke-width="10" stroke="url(#SvgjsLinearGradient1044)" stroke-linecap="round" class="Down"></path><path d="M1857 186L1856 567" stroke-width="6" stroke="url(#SvgjsLinearGradient1041)" stroke-linecap="round" class="Up"></path><path d="M1961 268L1960 -248" stroke-width="10" stroke="url(#SvgjsLinearGradient1043)" stroke-linecap="round" class="Down"></path><path d="M1210 782L1209 471" stroke-width="10" stroke="url(#SvgjsLinearGradient1041)" stroke-linecap="round" class="Up"></path><path d="M725 539L724 958" stroke-width="10" stroke="url(#SvgjsLinearGradient1042)" stroke-linecap="round" class="Up"></path><path d="M1717 544L1716 215" stroke-width="6" stroke="url(#SvgjsLinearGradient1041)" stroke-linecap="round" class="Up"></path><path d="M1040 620L1039 106" stroke-width="6" stroke="url(#SvgjsLinearGradient1043)" stroke-linecap="round" class="Down"></path><path d="M1621 557L1620 -22" stroke-width="8" stroke="url(#SvgjsLinearGradient1044)" stroke-linecap="round" class="Down"></path><path d="M1896 214L1895 -250" stroke-width="8" stroke="url(#SvgjsLinearGradient1044)" stroke-linecap="round" class="Down"></path><path d="M813 584L812 967" stroke-width="10" stroke="url(#SvgjsLinearGradient1041)" stroke-linecap="round" class="Up"></path><path d="M907 37L906 648" stroke-width="6" stroke="url(#SvgjsLinearGradient1041)" stroke-linecap="round" class="Up"></path><path d="M1115 82L1114 -513" stroke-width="6" stroke="url(#SvgjsLinearGradient1041)" stroke-linecap="round" class="Up"></path><path d="M1927 896L1926 1148" stroke-width="6" stroke="url(#SvgjsLinearGradient1042)" stroke-linecap="round" class="Up"></path><path d="M548 365L547 -322" stroke-width="8" stroke="url(#SvgjsLinearGradient1042)" stroke-linecap="round" class="Up"></path><path d="M202 485L201 78" stroke-width="8" stroke="url(#SvgjsLinearGradient1041)" stroke-linecap="round" class="Up"></path><path d="M1725 924L1724 1237" stroke-width="8" stroke="url(#SvgjsLinearGradient1041)" stroke-linecap="round" class="Up"></path><path d="M1017 347L1016 28" stroke-width="6" stroke="url(#SvgjsLinearGradient1043)" stroke-linecap="round" class="Down"></path><path d="M1906 755L1905 14" stroke-width="8" stroke="url(#SvgjsLinearGradient1043)" stroke-linecap="round" class="Down"></path><path d="M1382 457L1381 909" stroke-width="8" stroke="url(#SvgjsLinearGradient1041)" stroke-linecap="round" class="Up"></path><path d="M1607 378L1606 -72" stroke-width="8" stroke="url(#SvgjsLinearGradient1041)" stroke-linecap="round" class="Up"></path><path d="M1023 978L1022 305" stroke-width="10" stroke="url(#SvgjsLinearGradient1043)" stroke-linecap="round" class="Down"></path><path d="M1539 796L1538 1475" stroke-width="8" stroke="url(#SvgjsLinearGradient1044)" stroke-linecap="round" class="Down"></path><path d="M647 208L646 -85" stroke-width="10" stroke="url(#SvgjsLinearGradient1043)" stroke-linecap="round" class="Down"></path><path d="M414 841L413 1136" stroke-width="10" stroke="url(#SvgjsLinearGradient1041)" stroke-linecap="round" class="Up"></path><path d="M61 464L60 -53" stroke-width="8" stroke="url(#SvgjsLinearGradient1043)" stroke-linecap="round" class="Down"></path><path d="M570 766L569 1272" stroke-width="10" stroke="url(#SvgjsLinearGradient1043)" stroke-linecap="round" class="Down"></path><path d="M862 403L861 750" stroke-width="8" stroke="url(#SvgjsLinearGradient1042)" stroke-linecap="round" class="Up"></path><path d="M16 165L15 -396" stroke-width="10" stroke="url(#SvgjsLinearGradient1044)" stroke-linecap="round" class="Down"></path><path d="M511 47L510 -540" stroke-width="10" stroke="url(#SvgjsLinearGradient1041)" stroke-linecap="round" class="Up"></path><path d="M722 360L721 824" stroke-width="10" stroke="url(#SvgjsLinearGradient1041)" stroke-linecap="round" class="Up"></path><path d="M963 438L962 10" stroke-width="10" stroke="url(#SvgjsLinearGradient1043)" stroke-linecap="round" class="Down"></path><path d="M1886 779L1885 1463" stroke-width="8" stroke="url(#SvgjsLinearGradient1041)" stroke-linecap="round" class="Up"></path><path d="M658 856L657 1440" stroke-width="10" stroke="url(#SvgjsLinearGradient1041)" stroke-linecap="round" class="Up"></path><path d="M1151 152L1150 694" stroke-width="6" stroke="url(#SvgjsLinearGradient1041)" stroke-linecap="round" class="Up"></path><path d="M418 984L417 532" stroke-width="8" stroke="url(#SvgjsLinearGradient1043)" stroke-linecap="round" class="Down"></path><path d="M1298 725L1297 1042" stroke-width="10" stroke="url(#SvgjsLinearGradient1041)" stroke-linecap="round" class="Up"></path><path d="M682 635L681 1348" stroke-width="10" stroke="url(#SvgjsLinearGradient1044)" stroke-linecap="round" class="Down"></path><path d="M1488 241L1487 640" stroke-width="8" stroke="url(#SvgjsLinearGradient1043)" stroke-linecap="round" class="Down"></path></g><defs><mask id="SvgjsMask1040"><rect width="2000" height="1000" fill="#ffffff"></rect></mask><linearGradient x1="0%" y1="100%" x2="0%" y2="0%" id="SvgjsLinearGradient1041"><stop stop-color="rgba(36, 48, 177, 0)" offset="0"></stop><stop stop-color="rgba(36, 48, 177, 1)" offset="1"></stop></linearGradient><linearGradient x1="0%" y1="100%" x2="0%" y2="0%" id="SvgjsLinearGradient1042"><stop stop-color="rgba(28, 83, 142, 0)" offset="0"></stop><stop stop-color="#1c538e" offset="1"></stop></linearGradient><linearGradient x1="0%" y1="0%" x2="0%" y2="100%" id="SvgjsLinearGradient1043"><stop stop-color="rgba(28, 83, 142, 0)" offset="0"></stop><stop stop-color="#1c538e" offset="1"></stop></linearGradient><linearGradient x1="0%" y1="0%" x2="0%" y2="100%" id="SvgjsLinearGradient1044"><stop stop-color="rgba(36, 48, 177, 0)" offset="0"></stop><stop stop-color="rgba(36, 48, 177, 1)" offset="1"></stop></linearGradient></defs></svg>